<svg xmlns="http://www.w3.org/2000/svg" viewBox="0 0 64 64">
  <defs>
    <linearGradient id="g" x1="0" x2="1" y1="0" y2="1">
      <stop offset="0" stop-color="#00d4aa"/>
      <stop offset="1" stop-color="#3b82f6"/>
    </linearGradient>
  </defs>
  <rect width="64" height="64" rx="14" fill="#0a0e1a"/>
  <circle cx="32" cy="32" r="24" fill="url(#g)"/>
  <circle cx="32" cy="32" r="18" fill="#f8fafc"/>
  <path fill="#0a0e1a" d="M32 16l8 6-3 9H27l-3-9 8-6zm-13 14l8 3 1 10-8 5-6-8 5-10zm26 0l5 10-6 8-8-5 1-10 8-3zM29 45h6l7 5-4 7H26l-4-7 7-5z"/>
</svg>
